PathFileType	4	(X/Y/Z)	\\Move.snu.ac.kr\motion\Animal\091204_091205_Bird\091205_bird\Project 2\Capture day 2\Session 1\pigeon_008.trc
DataRate	CameraRate	NumFrames	NumMarkers	Units	OrigDataRate	OrigDataStartFrame	OrigNumFrames
240.0	240.0	15	14	mm	240.0	41	3164
Frame#	Time	14MarkersBird:Head			14MarkersBird:C_back			14MarkersBird:Spine			14MarkersBird:L-shoulder			14MarkersBird:L-elbow			14MarkersBird:L-wrist			14MarkersBird:L-hand			14MarkersBird:R-shoulder			14MarkersBird:R-elbow			14MarkersBird:R-Wrist			14MarkersBird:R-hand			14MarkersBird:C_Tail			14MarkersBird:L-Tale			14MarkersBird:R-Tale			
		X1	Y1	Z1	X2	Y2	Z2	X3	Y3	Z3	X4	Y4	Z4	X5	Y5	Z5	X6	Y6	Z6	X7	Y7	Z7	X8	Y8	Z8	X9	Y9	Z9	X10	Y10	Z10	X11	Y11	Z11	X12	Y12	Z12	X13	Y13	Z13	X14	Y14	Z14	

2085	8.683	-514.02692	599.17975	1823.26929	-575.29901	567.16315	1814.31628	-616.01147	532.01514	1803.53076	-545.70416	581.96484	1793.98059	-592.77826	578.30957	1799.56104	-574.48511	615.95465	1786.97656	-577.67450	611.94867	1761.31641	-553.73456	576.29041	1840.23108	-591.14240	577.43317	1830.97266	-577.83783	602.63904	1860.08899	-578.04376	596.36749	1892.89026	-628.05353	413.68073	1756.52551	-599.92212	499.53845	1702.07849	-609.16553	424.97321	1863.31262	
2086	8.688	-514.82581	597.78949	1824.93896	-574.56744	564.41119	1814.85046	-616.09973	530.38104	1804.14258	-545.19366	579.68896	1796.20654	-592.38959	577.45032	1806.25696	-577.04303	618.02362	1796.13342	-590.66394	619.22980	1773.72705	-554.33563	574.23572	1840.33032	-588.79950	578.47986	1825.92969	-580.79767	607.60272	1852.75940	-594.09753	609.55328	1883.58044	-631.24084	411.95801	1756.03394	-599.87964	492.16443	1702.63623	-612.70093	421.66522	1861.52466	
2087	8.692	-515.70300	596.53552	1826.62000	-574.02399	561.72113	1815.44824	-616.18909	529.10052	1804.54407	-545.04254	577.09070	1798.50610	-590.50555	576.20587	1811.12610	-577.11359	619.68152	1802.82458	-597.79242	626.35382	1788.32532	-554.67279	571.60986	1841.09656	-585.32117	578.93109	1823.61670	-580.36310	611.34766	1847.37415	-603.69269	622.22699	1870.83374	-636.12000	410.22205	1755.80566	-600.28168	483.00665	1703.72791	-615.45996	417.69937	1859.21863	
2088	8.696	-516.52173	595.29822	1828.30762	-573.57452	559.10175	1816.12231	-616.24921	528.06171	1804.78711	-545.03918	574.35693	1800.44348	-587.32983	575.16437	1813.87195	-575.42389	620.66943	1804.78979	-598.76489	631.90192	1799.64417	-554.67041	568.47766	1842.54968	-581.61719	578.96881	1824.20862	-578.16687	613.08411	1846.73877	-606.26538	632.47375	1860.74365	-641.37616	408.56094	1756.01892	-600.79358	473.41156	1705.30676	-617.04419	413.39908	1856.68750	
2089	8.700	-517.16547	593.97363	1829.97778	-573.12482	556.56165	1816.88623	-616.27466	527.17548	1804.93335	-544.83911	571.66418	1801.71228	-582.99725	574.61865	1814.34351	-572.87714	620.33704	1801.26001	-595.40948	635.42218	1802.84937	-554.20020	564.97125	1844.69971	-578.57745	578.51044	1827.31775	-576.40576	612.06610	1851.76550	-604.02203	638.66095	1858.91321	-645.85828	407.09259	1756.84216	-601.36945	465.05646	1707.11682	-618.06671	409.49060	1854.52637	
2090	8.704	-517.57599	592.51831	1831.59778	-572.57367	554.11383	1817.75073	-616.25317	526.41003	1805.02173	-544.12354	569.08441	1802.35608	-578.05603	574.46326	1812.56677	-569.65198	617.86823	1793.37439	-589.96942	636.57318	1796.56238	-553.15601	561.38129	1847.49292	-576.59753	577.15118	1832.28101	-576.06104	607.82922	1861.06067	-600.46698	639.21118	1866.97034	-649.08850	405.92267	1758.24316	-602.14716	459.30270	1708.76074	-619.41119	406.65201	1853.37622	
2091	8.708	-517.74109	590.90851	1833.12524	-571.82721	551.77966	1818.71265	-616.17090	525.73267	1805.09290	-542.78412	566.55121	1802.71057	-573.26422	574.11578	1808.83936	-565.01764	612.77667	1783.34534	-582.98730	634.33264	1783.19067	-551.52710	557.91028	1850.51392	-575.26672	574.56128	1838.26868	-576.06085	600.44678	1872.16321	-597.24554	633.13232	1882.03296	-651.48712	405.25656	1759.99902	-603.25818	456.64117	1709.91345	-621.44366	405.09720	1853.48694	
2092	8.712	-517.65210	589.13892	1834.54480	-570.83118	549.60217	1819.73547	-616.01385	525.10931	1805.18970	-541.00378	563.97437	1803.13428	-568.81586	572.79999	1803.66650	-558.05090	604.90704	1773.43323	-573.06256	627.50702	1767.12366	-549.44525	554.70734	1853.31152	-573.89209	570.60162	1844.74023	-574.28845	590.62811	1883.00439	-592.70160	620.90057	1899.61719	-654.06909	405.45975	1761.85034	-604.67114	456.54446	1710.56787	-623.88953	404.65137	1854.60474	
2093	8.717	-517.30103	587.24078	1835.89026	-569.63446	547.65399	1820.73621	-615.77496	524.50525	1805.34790	-539.09552	561.35522	1803.75708	-564.11816	569.93365	1797.68018	-548.58795	594.45081	1765.25659	-559.22125	615.94196	1752.44385	-547.18872	551.78210	1855.63904	-571.99164	565.34064	1851.49500	-569.50372	579.22968	1892.36792	-584.55933	604.17664	1916.11377	-657.45813	406.67081	1763.60657	-606.19934	457.80676	1711.03760	-626.34784	404.99347	1856.26624	
2094	8.721	-516.68268	585.23315	1837.21680	-568.39026	546.03790	1821.60876	-615.45288	523.88654	1805.59729	-537.27386	558.75037	1804.51099	-558.67792	565.35059	1791.80615	-537.36548	581.98859	1759.87146	-542.23181	600.48212	1741.89978	-545.00714	549.05627	1857.41516	-569.23169	559.13763	1858.20947	-561.89209	566.81281	1899.49109	-572.32074	584.70355	1929.07971	-661.37134	408.58221	1765.17102	-607.58917	459.20404	1711.70166	-628.65857	405.83475	1858.10962	
2095	8.725	-515.77075	583.08917	1838.54565	-567.26141	544.85706	1822.27625	-615.03711	523.21887	1805.97363	-535.58099	556.23529	1805.29858	-552.67419	559.36743	1786.97888	-525.51569	568.29407	1758.11035	-523.86182	582.20117	1737.26501	-543.03552	546.49005	1858.63916	-565.46790	552.47791	1864.28552	-552.26794	553.80896	1903.54541	-556.83978	563.79663	1936.68848	-665.00629	410.63452	1766.55042	-608.62463	459.98212	1712.79688	-630.87030	407.04578	1860.00159	
2096	8.729	-514.50922	580.75586	1839.86365	-566.33472	544.14844	1822.71460	-614.51654	522.47644	1806.50745	-533.94391	553.90509	1806.06763	-546.68549	552.40149	1783.75269	-514.21063	554.19751	1760.53674	-505.97711	562.10724	1739.71570	-541.30182	544.09033	1859.33655	-560.81927	545.60645	1869.11169	-541.51373	540.77643	1903.74670	-539.30420	542.43494	1937.50684	-667.58728	412.27048	1767.82813	-609.14331	459.84460	1714.36768	-633.07672	408.61032	1861.96008	
2097	8.733	-512.85101	578.18982	1841.14185	-565.59613	543.83917	1822.96716	-613.85992	521.60913	1807.25537	-532.25818	551.84705	1806.79639	-541.34540	544.83673	1782.37244	-504.65161	540.91064	1767.06274	-490.56537	541.84760	1749.44788	-539.76685	541.90161	1859.60071	-555.72803	538.80853	1872.22131	-530.69073	528.71661	1899.78992	-521.23358	522.11023	1930.88733	-668.59308	413.02582	1769.17151	-609.07599	458.80194	1716.33081	-635.36505	410.54623	1864.09448	
2098	8.738	-510.76605	575.38269	1842.36292	-564.91754	543.75476	1823.14734	-613.00238	520.56219	1808.27747	-530.47040	550.07678	1807.49011	-537.22089	537.11487	1782.71802	-497.76645	529.90564	1776.66101	-479.29944	523.82611	1765.20947	-538.36407	539.98749	1859.58557	-550.91724	532.38629	1873.56958	-520.96082	519.00378	1892.31860	-504.31915	504.96640	1917.56836	-667.95093	412.70325	1770.78809	-608.46088	457.07397	1718.52454	-637.75433	412.85190	1866.55872	
2099	8.742	-508.22623	572.34503	1843.53027	-564.08850	543.66882	1823.44873	-611.81128	519.28735	1809.62817	-528.58185	548.52069	1808.16821	-534.93634	530.14758	1784.10706	-494.18225	523.02155	1787.11829	-473.51425	511.42291	1783.78479	-537.01050	538.45697	1859.48242	-547.39807	526.92694	1873.57678	-513.67090	513.49823	1883.21985	-490.69601	494.10147	1900.04370	-665.97101	411.39420	1772.92126	-607.40112	454.99600	1720.72961	-640.17572	415.50549	1869.54700	
